<svg width="148" height="125" viewBox="0 0 148 125" fill="none" xmlns="http://www.w3.org/2000/svg">
<path d="M147.501 4.14094L134.102 41.0367C133.288 43.2563 131.802 45.1757 129.845 46.5348C127.888 47.894 125.554 48.6273 123.16 48.6353H27.5597C27.2266 48.6221 26.8952 48.6872 26.5927 48.8253C26.2902 48.9634 26.0254 49.1705 25.8202 49.4294C25.615 49.6884 25.4752 49.9918 25.4125 50.3145C25.3498 50.6373 25.3659 50.9701 25.4595 51.2855L27.3707 57.4969C27.5032 57.9125 27.7654 58.2764 28.1198 58.5366C28.4743 58.7968 28.903 58.9401 29.3449 58.9462H110.832C113.41 58.9178 115.929 59.7091 118.015 61.203C120.015 62.6738 121.483 64.7398 122.202 67.096C122.92 69.4523 122.851 71.9738 122.005 74.2884L111.168 103.979C110.35 106.192 108.862 108.105 106.904 109.456C104.947 110.808 102.616 111.534 100.226 111.536H97.6009C96.9106 108.859 95.3351 106.486 93.1234 104.79C90.9117 103.095 88.19 102.174 85.3883 102.174C82.5867 102.174 79.865 103.095 77.6533 104.79C75.4416 106.486 73.8661 108.859 73.1758 111.536H54.106C53.4084 108.869 51.8311 106.505 49.6223 104.818C47.4134 103.131 44.6983 102.215 41.904 102.215C39.1096 102.215 36.3945 103.131 34.1856 104.818C31.9768 106.505 30.3995 108.869 29.7019 111.536H24.5774C23.8755 111.534 23.1923 111.312 22.6263 110.903C22.0602 110.494 21.6404 109.918 21.4271 109.259L16.8067 94.7653C16.6675 94.2833 16.6432 93.7761 16.7357 93.2833C16.8282 92.7905 17.0351 92.3255 17.3401 91.9246C17.6451 91.5237 18.04 91.1977 18.494 90.9722C18.9479 90.7466 19.4487 90.6276 19.957 90.6244H91.9304C92.356 90.6216 92.7706 90.4914 93.1194 90.251C93.4681 90.0107 93.7347 89.6716 93.8836 89.2786L96.2148 82.8808C96.3206 82.5722 96.351 82.2434 96.3036 81.921C96.2562 81.5986 96.1323 81.2918 95.942 81.0255C95.7517 80.7592 95.5003 80.5409 95.2084 80.3884C94.9164 80.2359 94.592 80.1535 94.2616 80.1478H20.7551C18.2664 80.1556 15.8415 79.3722 13.8402 77.9139C11.8389 76.4556 10.3677 74.4 9.64508 72.0523L0.509293 42.6102C-0.0229187 40.8978 -0.140213 39.0861 0.166855 37.3208C0.473923 35.5556 1.19678 33.8859 2.27731 32.4461C3.35786 31.0063 4.76596 29.8365 6.38844 29.0307C8.01091 28.2249 9.80252 27.8055 11.6193 27.8064H113.1C114.024 27.7954 114.921 27.5057 115.672 26.9763C116.423 26.4469 116.992 25.7033 117.301 24.8456L125.596 2.07048C125.845 1.45817 126.274 0.933446 126.828 0.564288C127.382 0.195129 128.036 -0.0014501 128.705 8.05364e-06H144.393C144.896 0.0135149 145.39 0.139747 145.837 0.36917C146.283 0.598594 146.671 0.925181 146.97 1.32419C147.27 1.7232 147.473 2.18418 147.565 2.67219C147.657 3.16021 147.635 3.66248 147.501 4.14094Z" fill="#6172F3"/>
<path d="M51.4883 115.159C51.4883 117.105 50.9111 119.008 49.8297 120.626C48.7483 122.245 47.2113 123.506 45.413 124.251C43.6147 124.996 41.636 125.191 39.7269 124.811C37.8179 124.431 36.0643 123.494 34.6879 122.117C33.3116 120.741 32.3743 118.988 31.9945 117.079C31.6148 115.169 31.8097 113.191 32.5546 111.392C33.2995 109.594 34.5609 108.057 36.1793 106.976C37.7977 105.894 39.7004 105.317 41.6469 105.317C44.257 105.317 46.7602 106.354 48.6058 108.2C50.4514 110.045 51.4883 112.548 51.4883 115.159Z" fill="#A9F800"/>
<path d="M85.2914 125C79.8561 125 75.45 120.594 75.45 115.159C75.45 109.723 79.8561 105.317 85.2914 105.317C90.7267 105.317 95.1328 109.723 95.1328 115.159C95.1328 120.594 90.7267 125 85.2914 125Z" fill="#A9F800"/>
</svg>
